:SAMPLES-PER-SECOND 30
:FULLY-SPECIFIED
:DEGREES
1328
root  -56.7033 40.1434 26.2865 179.761 56.0884 177.872
RightUpLeg  -18.0549 -26.9764 -0.162427
RightLeg  24.5848 -2.62568 -1.53893
RightFoot  -8.79016 -0.0452291 -0.655857
RightToes  0.00048216 0.542163 -0.142577
Spine  14.4842 0.438174 4.43847
Spine1  6.99512 1.79053 -2.76215
HEad  54.3062 23.7338 -159.577
LeftShoulder1  7.82382 -11.8952 -44.2374
LeftArm  -15.339 17.8462 -28.1252
LeftForeArm  43.6303 -49.2127 -9.72921
LeftHand  -0.25398 0.0180481 5.50724
RightShoulder  5.33752 9.24019 35.9038
RightArm  -15.1478 -23.5108 33.5902
RightForeArm  -9.26623 11.392 6.13649
RightHand  -5.2584 14.796 -30.0207
LeftUpLeg  5.85098 34.5887 23.2207
LeftLeg  20.9504 17.2257 7.90366
LeftFoot  7.47166 1.12622 -7.009
LeftToes  1.06246e-005 4.65856e-005 -8.18502e-006
1329
root  -55.6922 40.1449 26.4689 179.399 58.0512 177.672
RightUpLeg  -16.7805 -25.5557 0.409306
RightLeg  24.98 -2.0354 -1.28142
RightFoot  -10.3547 -0.0617727 -0.985215
RightToes  0.00048216 0.542163 -0.142577
Spine  14.5989 0.350436 5.43631
Spine1  6.8843 1.92855 -2.64995
HEad  53.7893 22.3497 -160.826
LeftShoulder1  7.8338 -11.9136 -44.2413
LeftArm  -15.1034 18.1862 -28.2269
LeftForeArm  42.6856 -47.1852 -9.02174
LeftHand  -0.25398 0.0180481 5.50724
RightShoulder  5.26052 8.98637 36.133
RightArm  -14.4008 -22.1551 34.7956
RightForeArm  -10.2766 12.3185 6.32672
RightHand  -5.22122 14.5501 -30.166
LeftUpLeg  0.446839 27.8384 19.3998
LeftLeg  28.8838 13.01 7.93314
LeftFoot  4.74498 0.66121 -4.90756
LeftToes  1.06246e-005 4.65856e-005 -8.18502e-006
1330
root  -54.6846 40.1907 26.5806 179.16 59.7996 177.567
RightUpLeg  -14.9027 -24.4557 0.816801
RightLeg  24.4015 -1.50225 -0.902334
RightFoot  -11.664 -0.0821012 -1.19091
RightToes  0.00048216 0.542163 -0.142577
Spine  14.3384 0.293832 6.60513
Spine1  7.34992 2.10899 -2.5995
HEad  53.8168 21.4718 -161.576
LeftShoulder1  7.82328 -11.9002 -44.2195
LeftArm  -14.6378 18.2895 -28.3993
LeftForeArm  41.96 -44.7604 -8.21975
LeftHand  -0.25398 0.0180481 5.50724
RightShoulder  5.25534 8.87192 36.4716
RightArm  -12.3006 -20.024 35.5144
RightForeArm  -11.3925 13.3187 6.67495
RightHand  -5.32015 14.789 -30.3626
LeftUpLeg  -4.7432 23.6827 15.5811
LeftLeg  35.3429 7.81659 6.31946
LeftFoot  1.27113 0.518664 -4.77512
LeftToes  1.06246e-005 4.65856e-005 -8.18502e-006
1331
root  -53.6091 40.3383 26.6655 178.441 61.6168 176.778
RightUpLeg  -12.1515 -22.7009 0.372629
RightLeg  22.5045 -1.9211 -0.0215409
RightFoot  -12.7815 -0.0957826 -0.774447
RightToes  0.00048216 0.542163 -0.142577
Spine  13.8384 0.492109 7.31403
Spine1  7.76105 2.46426 -2.83923
HEad  53.3311 21.2268 -162.536
LeftShoulder1  7.84606 -11.8929 -44.376
LeftArm  -13.6221 18.5929 -28.1826
LeftForeArm  41.2509 -42.4233 -7.51119
LeftHand  -0.25398 0.0180481 5.50724
RightShoulder  5.27129 8.84206 36.6971
RightArm  -10.1067 -17.3567 36.0755
RightForeArm  -9.24183 13.6122 6.84872
RightHand  -5.36698 15.19 -30.0519
LeftUpLeg  -9.24515 20.4868 11.402
LeftLeg  39.0817 6.90158 6.3631
LeftFoot  -0.872309 0.427074 -4.59632
LeftToes  1.06246e-005 4.65856e-005 -8.18502e-006
1332
root  -52.5031 40.5286 26.7305 177.132 63.8086 175.126
RightUpLeg  -9.07104 -18.5769 -0.94029
RightLeg  19.8891 -4.05552 1.46547
RightFoot  -13.7776 -0.0822284 0.496433
RightToes  0.00048216 0.542163 -0.142577
Spine  13.4295 1.01601 7.8429
Spine1  7.46452 3.19701 -3.76262
HEad  52.0169 21.4312 -164.134
LeftShoulder1  7.96996 -12.0891 -44.5176
LeftArm  -12.0634 19.7457 -27.6372
LeftForeArm  40.2346 -40.54 -7.00641
LeftHand  -0.25398 0.0180481 5.50724
RightShoulder  5.28711 8.89979 36.6284
RightArm  -8.5234 -14.9925 36.9192
RightForeArm  -4.74172 13.9932 6.68585
RightHand  -5.01546 14.5924 -28.9817
LeftUpLeg  -13.0441 17.7207 6.91314
LeftLeg  39.8099 8.41721 7.80538
LeftFoot  -2.45091 0.307723 -3.75997
LeftToes  1.06246e-005 4.65856e-005 -8.18502e-006
1333
root  -51.3812 40.6606 26.7636 175.618 66.3246 173.427
RightUpLeg  -5.9594 -14.2033 -1.94615
RightLeg  17.1301 -5.57033 2.99983
RightFoot  -14.7344 -0.0325539 2.26447
RightToes  0.00048216 0.542163 -0.142577
Spine  13.2867 1.65022 8.68721
Spine1  6.69691 4.1586 -5.16369
HEad  50.6444 22.7152 -165.192
LeftShoulder1  8.09183 -12.3599 -44.4231
LeftArm  -10.5246 21.7162 -27.1863
LeftForeArm  39.0748 -39.0647 -6.65332
LeftHand  -0.25398 0.0180481 5.50724
RightShoulder  5.37138 9.13042 36.5199
RightArm  -6.33506 -13.2295 37.7891
RightForeArm  -1.59821 15.63 6.23327
RightHand  -4.32744 12.8561 -27.4752
LeftUpLeg  -16.0232 14.8666 2.85163
LeftLeg  37.8546 9.09442 7.87417
LeftFoot  -3.90151 0.223842 -3.0978
LeftToes  1.06246e-005 4.65856e-005 -8.18502e-006
1334
root  -50.2141 40.7074 26.7857 173.987 68.8345 171.922
RightUpLeg  -2.6372 -10.8687 -2.39899
RightLeg  14.3543 -5.94374 4.17471
RightFoot  -15.6324 0.0376309 3.8366
RightToes  0.00048216 0.542163 -0.142577
Spine  13.2082 2.1943 9.40247
Spine1  6.17805 4.94367 -6.28405
HEad  51.0539 28.5292 -162.455
LeftShoulder1  8.06713 -12.3564 -44.2914
LeftArm  -9.42 23.6541 -26.9966
LeftForeArm  38.0147 -37.4068 -6.26103
LeftHand  -0.25398 0.0180481 5.50724
RightShoulder  5.51516 9.45319 36.5694
RightArm  -2.67362 -11.4481 38.2712
RightForeArm  -1.3227 18.4756 5.62013
RightHand  -3.66196 10.9918 -25.9747
LeftUpLeg  -18.1758 11.5978 -0.387756
LeftLeg  33.6264 7.86784 5.95749
LeftFoot  -4.16955 0.2288 -3.2457
LeftToes  1.06246e-005 4.65856e-005 -8.18502e-006
1335
root  -49.0115 40.6658 26.8199 172.404 71.177 170.452
RightUpLeg  0.403005 -9.39101 -2.46758
RightLeg  12.1107 -4.77756 4.92014
RightFoot  -16.5304 0.0928216 4.52913
RightToes  0.00048216 0.542163 -0.142577
Spine  12.9108 2.66939 9.66403
Spine1  6.17973 5.45431 -6.70866
HEad  54.8592 38.3862 -155.356
LeftShoulder1  7.97161 -12.1307 -44.4031
LeftArm  -8.52319 24.9622 -26.8822
LeftForeArm  36.8855 -35.0441 -5.70935
LeftHand  -0.25398 0.0180481 5.50724
RightShoulder  5.58334 9.62591 36.5299
RightArm  0.885211 -9.07655 38.5581
RightForeArm  -1.54338 21.5021 5.10245
RightHand  -3.18286 9.74778 -24.4945
LeftUpLeg  -19.7879 8.29105 -2.9048
LeftLeg  27.6862 5.62458 3.53958
LeftFoot  -3.19465 0.269539 -3.5192
LeftToes  1.06246e-005 4.65856e-005 -8.18502e-006
1336
root  -47.778 40.5368 26.8595 171.206 73.5968 169.309
RightUpLeg  2.90472 -9.14386 -2.25088
RightLeg  10.937 -2.35596 5.31343
RightFoot  -17.4644 0.100368 4.09851
RightToes  0.00048216 0.542163 -0.142577
Spine  12.4215 3.21312 9.92264
Spine1  6.54222 5.98851 -6.87367
HEad  57.2288 39.8651 -153.082
LeftShoulder1  7.99624 -12.0964 -44.6484
LeftArm  -7.5496 25.928 -26.7044
LeftForeArm  35.4803 -32.1548 -5.0764
LeftHand  -0.25398 0.0180481 5.50724
RightShoulder  5.51575 9.56643 36.2141
RightArm  2.4762 -6.2592 39.054
RightForeArm  -0.0129733 23.9781 5.09502
RightHand  -2.84465 9.03096 -23.0454
LeftUpLeg  -20.86 6.78202 -4.99524
LeftLeg  20.4775 2.76396 1.61578
LeftFoot  -2.15642 0.294865 -3.50962
LeftToes  1.06246e-005 4.65856e-005 -8.18502e-006
1337
root  -46.4819 40.358 26.8956 169.838 76.2206 168.329
RightUpLeg  5.60755 -8.87539 -1.89688
RightLeg  10.29 0.0522821 5.43076
RightFoot  -18.2512 0.0381367 2.67983
RightToes  0.00048216 0.542163 -0.142577
Spine  12.051 3.74916 10.331
Spine1  7.23941 6.69745 -7.32844
HEad  54.3109 33.6306 -159.146
LeftShoulder1  8.13656 -12.3221 -44.7913
LeftArm  -6.67139 26.9981 -26.512
LeftForeArm  33.9422 -29.2225 -4.48109
LeftHand  -0.25398 0.0180481 5.50724
RightShoulder  5.42941 9.46088 35.9001
RightArm  2.93986 -3.44582 39.7067
RightForeArm  1.92706 25.9303 5.46548
RightHand  -2.69136 8.77285 -22.2348
LeftUpLeg  -20.9925 6.58125 -6.23275
LeftLeg  12.4584 2.40649 -0.108504
LeftFoot  -1.28563 0.333433 -3.69882
LeftToes  1.06246e-005 4.65856e-005 -8.18502e-006
